# xmcd CD database file
#
# Track frame offsets:
#	150
#	31845
#	59053
#	81598
#	104341
#	137354
#	160310
#	174852
#	204408
#	239696
#	270639
#	284115
#	310720
#
# Disc length: 4691 seconds
#
# Revision: 1
# Processed by: cddbd v1.5.2PL0 Copyright (c) Steve Scherf et al.
# Submitted via: CDex 1.70beta2
#
DISCID=bb12510d
DTITLE=Blue Note - Best Blue Note 100 Disc6 Big Hits
DYEAR=2009
DGENRE=Jazz
TTITLE0=Candy
TTITLE1=Recorda-Me
TTITLE2=Sweet Honey Bee
TTITLE3=Brazil
TTITLE4=Caracas
TTITLE5=Afrodisia
TTITLE6=Loie
TTITLE7=Cheese Cake
TTITLE8=Speak Like A Child
TTITLE9=Adam's Apple
TTITLE10=Aconteceu
TTITLE11=Mexican Hip Dance
TTITLE12=Arabia
EXTD=YEAR: 2009
EXTT0=
EXTT1=
EXTT2=
EXTT3=
EXTT4=
EXTT5=
EXTT6=
EXTT7=
EXTT8=
EXTT9=
EXTT10=
EXTT11=
EXTT12=
PLAYORDER=
